<svg xmlns="http://www.w3.org/2000/svg" width="467.6" height="442.7" viewBox="0 0 467.6 442.7"><style>.st0{fill:none;stroke:#FFFFFF;stroke-width:2;stroke-miterlimit:10;} .st1{fill:#FFFFFF;} .st2{fill:#FFFFFF;stroke:#FFFFFF;stroke-miterlimit:10;}</style><path class="st0" d="M432.2 358.9c1.8-2.8 3.6-5.6 5.2-8.5l-139.8-80.3-96.2 129.3c26.9 20 60.2 31.9 96.2 31.9 32.7 0 63.1-9.7 88.4-26.4"/><path class="st1" d="M467.6 384.8l-87.5-50.7 16 108.6 30-26.6 16.2 23.1 14.9-12.3-15.8-22.6"/><g id="Layer_1_1_"><path class="st0" d="M234.8 248.8c0-42.9-35.1-77.9-77.9-77.9h-78c-42.8-.1-77.9 35-77.9 77.9v63.8h233.8v-63.8z"/><circle class="st0" cx="118.8" cy="81.9" r="80.9"/><path class="st2" d="M295.6 102c-22.8 0-44.6 4.8-64.2 13.3l64.2 147.9-64.2-147.8c-27.5 12-51 31.4-68 55.7 39.8 3.4 71.3 37 71.3 77.6v63.8h-92.6c10.3 32.5 30.6 60.7 57.3 80.6l96.2-128.9L435.4 344c13.6-23.6 21.4-51.3 21.4-80.5 0-89.1-72.2-161.5-161.2-161.5z"/><path class="st1" d="M91.3 27c-.3.1-33.2 2-52.3 37.1l-.1.2-2.3 16.3 2.6-4.7c.2-.3 19.7-34.5 52.2-34.5h1V27h-1.1zM199.5 64.3l-.1-.2c-19.2-35.1-52.2-37-52.5-37.1h-1v14.5h1c32.5 0 50.9 35.3 51.1 35.7l2 3.9-.5-16.8z"/><g><path class="st1" d="M124.8 6.9V28h22v12.3h-22v21.1h-11.4v-21h-22V28h22V6.9h11.4m1.8-1.8h-14.9v21.2H89.6V42.1h22V63.2h14.9V42.1h22V26.3h-22V5.1h.1z"/></g></g></svg>