<svg version="1.1"
	 xmlns="http://www.w3.org/2000/svg" xmlns:xlink="http://www.w3.org/1999/xlink" xmlns:a="http://ns.adobe.com/AdobeSVGViewerExtensions/3.0/"
	 x="0px" y="0px" width="666.1px" height="115.1px" viewBox="0 0 666.1 115.1" style="enable-background:new 0 0 666.1 115.1;"
	 xml:space="preserve">
<style type="text/css">
	.st0{fill:#CCCCCC;}
	.st1{fill:#FFFFFF;}
</style>
<defs>
</defs>
<g>
	<g>
		<path class="st0" d="M56.7,115l0-5.6c28.1-0.1,50.9-23.1,50.9-51.5c0-14.5-6.1-28.4-16.8-38.1l3.8-4.1
			c11.8,10.8,18.6,26.2,18.6,42.2C113.1,89.3,87.8,114.9,56.7,115z"/>
	</g>
	<path class="st0" d="M5.6,58c0-28.3,22.8-51.4,50.9-51.5l0-5.6C25.3,1,0,26.6,0,58c0,16.1,6.8,31.5,18.6,42.3l3.7-4.1
		C11.7,86.4,5.6,72.5,5.6,58z"/>
	<g>
		<polygon class="st1" points="69.8,4.4 24.3,50.9 45.1,50.9 90.7,4.3 84.5,0 		"/>
	</g>
	<g>
		<polygon class="st1" points="69.8,62.4 24.3,108.9 45.1,108.9 90.7,62.2 84.5,58 		"/>
	</g>
	<g>
		<polygon class="st0" points="45,80 90.4,33.5 69.6,33.5 24.1,80.1 30.3,84.4 		"/>
	</g>
	<g>
		<g>
			<path class="st1" d="M168.8,60.2l-7.5-4.6c-4.7-2.9-8.1-5.7-10.1-8.5c-2-2.8-3-6-3-9.6c0-5.4,1.9-9.9,5.7-13.3
				c3.8-3.4,8.7-5.1,14.7-5.1c5.8,0,11.1,1.6,15.9,4.9v11.2c-5-4.8-10.4-7.2-16.1-7.2c-3.2,0-5.9,0.7-8,2.2
				c-2.1,1.5-3.1,3.4-3.1,5.7c0,2.1,0.8,4,2.3,5.8c1.5,1.8,4,3.7,7.4,5.7l7.6,4.5c8.4,5,12.7,11.5,12.7,19.2
				c0,5.5-1.9,10.1-5.6,13.5c-3.7,3.5-8.5,5.2-14.5,5.2c-6.8,0-13.1-2.1-18.7-6.3V71.1c5.3,6.8,11.5,10.2,18.6,10.2
				c3.1,0,5.7-0.9,7.8-2.6c2.1-1.7,3.1-3.9,3.1-6.5C177.9,68,174.8,64,168.8,60.2z"/>
		</g>
		<g>
			<path class="st1" d="M220.2,19.6h7l31,69.6H248l-9.2-20.5h-29.5l-8.6,20.5h-10.2L220.2,19.6z M234.7,59.9l-11.2-25.1l-10.4,25.1
				H234.7z"/>
		</g>
		<g>
			<path class="st1" d="M265.7,20h9.9v60.2h31.2v9h-41.1V20z"/>
		</g>
		<g>
			<path class="st1" d="M315.6,20h9.9v69.2h-9.9V20z"/>
		</g>
		<g>
			<path class="st1" d="M340.8,20H380v8.8h-29.3v21.1h28.3v8.9h-28.3v21.5H381v8.8h-40.2V20z"/>
		</g>
		<g>
			<path class="st1" d="M446.5,20h9.4v69.2h-8.5l-46.3-53.3v53.3h-9.3V20h8l46.7,53.7V20z"/>
		</g>
		<g>
			<path class="st1" d="M464.8,19.9h57.8v8.8h-24.1v60.5h-10V28.7h-23.7V19.9z"/>
		</g>
	</g>
	<g>
		<path class="st1" d="M103.8,107h1.2c0.5,0,0.8,0,1,0.1c0.2,0.1,0.3,0.2,0.4,0.3c0.1,0.1,0.2,0.3,0.2,0.5c0,0.3-0.1,0.5-0.3,0.7
			c-0.2,0.2-0.6,0.3-1.2,0.3h-1.2V107z M103.8,112.4v-2.7h0.6c0.4,0,0.6,0.1,0.8,0.2c0.3,0.2,0.6,0.7,1.1,1.5l0.6,1h1.2l-0.8-1.2
			c-0.4-0.6-0.7-1-0.9-1.3c-0.1-0.1-0.3-0.2-0.5-0.3c0.5,0,1-0.2,1.3-0.6c0.3-0.3,0.5-0.7,0.5-1.2c0-0.3-0.1-0.6-0.3-0.9
			c-0.2-0.3-0.5-0.5-0.8-0.6c-0.3-0.1-0.9-0.2-1.6-0.2h-2.2v6.3H103.8z M107.8,104.9c0.8,0.4,1.4,1,1.8,1.8c0.4,0.8,0.7,1.6,0.7,2.5
			c0,0.8-0.2,1.7-0.6,2.4c-0.4,0.8-1,1.4-1.8,1.8c-0.8,0.4-1.6,0.7-2.4,0.7c-0.8,0-1.7-0.2-2.4-0.7c-0.8-0.4-1.4-1-1.8-1.8
			c-0.4-0.8-0.6-1.6-0.6-2.4c0-0.9,0.2-1.7,0.7-2.5c0.4-0.8,1-1.4,1.8-1.8c0.8-0.4,1.6-0.6,2.4-0.6
			C106.2,104.3,107,104.5,107.8,104.9 M102.5,104.1c-0.9,0.5-1.7,1.2-2.2,2.2c-0.5,0.9-0.8,1.9-0.8,2.9c0,1,0.3,2,0.8,2.9
			c0.5,0.9,1.2,1.7,2.2,2.2c0.9,0.5,1.9,0.8,2.9,0.8c1,0,2-0.3,2.9-0.8c0.9-0.5,1.7-1.2,2.2-2.2c0.5-0.9,0.8-1.9,0.8-2.9
			c0-1-0.3-2-0.8-2.9c-0.5-0.9-1.3-1.7-2.2-2.2c-0.9-0.5-1.9-0.8-2.9-0.8C104.4,103.3,103.5,103.6,102.5,104.1"/>
	</g>
	<g>
		<path class="st1" d="M531.8,23.1h1.2c0.5,0,0.8,0,1,0.1c0.2,0.1,0.3,0.2,0.4,0.3c0.1,0.1,0.2,0.3,0.2,0.5c0,0.3-0.1,0.5-0.3,0.7
			c-0.2,0.2-0.6,0.3-1.2,0.3h-1.2V23.1z M531.8,28.5v-2.7h0.6c0.4,0,0.6,0.1,0.8,0.2c0.3,0.2,0.6,0.7,1.1,1.5l0.6,1h1.2l-0.8-1.2
			c-0.4-0.6-0.7-1-0.9-1.3c-0.1-0.1-0.3-0.2-0.5-0.3c0.5,0,1-0.2,1.3-0.6c0.3-0.3,0.5-0.7,0.5-1.2c0-0.3-0.1-0.6-0.3-0.9
			c-0.2-0.3-0.5-0.5-0.8-0.6c-0.3-0.1-0.9-0.2-1.6-0.2h-2.2v6.3H531.8z M535.7,21c0.8,0.4,1.4,1,1.8,1.8c0.4,0.8,0.7,1.6,0.7,2.5
			c0,0.8-0.2,1.7-0.6,2.4c-0.4,0.8-1,1.4-1.8,1.8c-0.8,0.4-1.6,0.6-2.4,0.6c-0.8,0-1.7-0.2-2.4-0.6c-0.8-0.4-1.4-1-1.8-1.8
			c-0.4-0.8-0.6-1.6-0.6-2.4c0-0.9,0.2-1.7,0.7-2.5c0.4-0.8,1.1-1.4,1.8-1.8c0.8-0.4,1.6-0.6,2.4-0.6
			C534.1,20.4,534.9,20.6,535.7,21 M530.4,20.2c-0.9,0.5-1.7,1.2-2.2,2.2c-0.5,0.9-0.8,1.9-0.8,2.9c0,1,0.3,2,0.8,2.9
			c0.5,0.9,1.2,1.6,2.2,2.2c0.9,0.5,1.9,0.8,2.9,0.8c1,0,2-0.3,2.9-0.8c0.9-0.5,1.7-1.2,2.2-2.2c0.5-0.9,0.8-1.9,0.8-2.9
			c0-1-0.3-2-0.8-2.9c-0.5-0.9-1.3-1.7-2.2-2.2c-0.9-0.5-1.9-0.8-2.9-0.8C532.3,19.4,531.4,19.7,530.4,20.2"/>
	</g>
</g>
<g>
	<path class="st0" d="M577.5,43.9h6.5v45.5h-6.5V69.6H552v19.8h-6.5V43.9h6.5v19.7h25.6V43.9z"/>
	<path class="st0" d="M626.2,43.9h6.5v45.5h-6.5V69.6h-25.6v19.8h-6.5V43.9h6.5v19.7h25.6V43.9z"/>
	<path class="st0" d="M654,70.3l-5-3c-3.1-1.9-5.3-3.8-6.6-5.6c-1.3-1.8-2-3.9-2-6.3c0-3.6,1.2-6.5,3.7-8.7c2.5-2.2,5.7-3.4,9.7-3.4
		c3.8,0,7.3,1.1,10.4,3.2v7.4c-3.3-3.2-6.8-4.7-10.6-4.7c-2.1,0-3.9,0.5-5.2,1.5c-1.4,1-2,2.2-2,3.8c0,1.4,0.5,2.6,1.5,3.8
		c1,1.2,2.6,2.4,4.9,3.7l5,2.9c5.5,3.3,8.3,7.5,8.3,12.7c0,3.6-1.2,6.6-3.7,8.9c-2.4,2.3-5.6,3.4-9.5,3.4c-4.5,0-8.6-1.4-12.3-4.1
		v-8.3c3.5,4.5,7.6,6.7,12.2,6.7c2,0,3.7-0.6,5.1-1.7c1.4-1.1,2-2.6,2-4.3C660,75.4,658,72.8,654,70.3z"/>
</g>
</svg>