<!-- Generator: Adobe Illustrator 19.2.1, SVG Export Plug-In  -->
<svg version="1.1"
	 xmlns="http://www.w3.org/2000/svg" xmlns:xlink="http://www.w3.org/1999/xlink" xmlns:a="http://ns.adobe.com/AdobeSVGViewerExtensions/3.0/"
	 x="0px" y="0px" width="633.6px" height="57.5px" viewBox="0 0 633.6 57.5" style="enable-background:new 0 0 633.6 57.5;"
	 xml:space="preserve">
<style type="text/css">
	.st0{fill:#989898;}
	.st1{fill:#1A457E;}
</style>
<defs>
</defs>
<g>
	<g>
		<path class="st0" d="M28.3,57.5l0-2.8c14,0,25.5-11.6,25.5-25.7c0-7.3-3.1-14.2-8.4-19.1l1.9-2.1c5.9,5.4,9.3,13.1,9.3,21.1
			C56.6,44.7,43.9,57.5,28.3,57.5z"/>
	</g>
	<g>
		<path class="st0" d="M9.3,50.1C3.4,44.7,0,37,0,29C0,13.3,12.7,0.5,28.2,0.5l0,2.8C14.2,3.3,2.8,14.8,2.8,29
			c0,7.3,3.1,14.2,8.4,19.1L9.3,50.1z"/>
	</g>
	<g>
		<polyline class="st1" points="42.2,0 34.9,2.2 12.2,25.4 22.6,25.5 45.4,2.1 		"/>
	</g>
	<g>
		<polygon class="st1" points="34.9,31.2 12.1,54.5 22.6,54.5 45.4,31.1 42.2,29 		"/>
	</g>
	<g>
		<polygon class="st0" points="22.5,40 45.2,16.8 34.8,16.7 12,40.1 15.2,42.2 		"/>
	</g>
	<g>
		<g>
			<path class="st1" d="M84.4,30.1l-3.8-2.3c-2.4-1.4-4-2.9-5-4.3c-1-1.4-1.5-3-1.5-4.8c0-2.7,0.9-4.9,2.8-6.6
				c1.9-1.7,4.3-2.6,7.4-2.6c2.9,0,5.5,0.8,7.9,2.4v5.6c-2.5-2.4-5.2-3.6-8-3.6c-1.6,0-2.9,0.4-4,1.1c-1,0.7-1.6,1.7-1.6,2.9
				c0,1,0.4,2,1.1,2.9c0.8,0.9,2,1.9,3.7,2.8l3.8,2.2c4.2,2.5,6.3,5.7,6.3,9.6c0,2.8-0.9,5-2.8,6.8c-1.9,1.7-4.3,2.6-7.2,2.6
				c-3.4,0-6.5-1.1-9.3-3.2v-6.3c2.7,3.4,5.8,5.1,9.3,5.1c1.6,0,2.8-0.4,3.9-1.3c1-0.9,1.5-1.9,1.5-3.2C88.9,34,87.4,32,84.4,30.1z"
				/>
		</g>
		<g>
			<path class="st1" d="M110.1,9.8h3.5l15.5,34.8H124l-4.6-10.3h-14.8l-4.3,10.3h-5.1L110.1,9.8z M117.4,29.9l-5.6-12.5l-5.2,12.5
				H117.4z"/>
		</g>
		<g>
			<path class="st1" d="M132.9,10h5v30.1h15.6v4.5h-20.5V10z"/>
		</g>
		<g>
			<path class="st1" d="M157.8,10h5v34.6h-5V10z"/>
		</g>
		<g>
			<path class="st1" d="M170.4,10H190v4.4h-14.7V25h14.2v4.4h-14.2v10.7h15.1v4.4h-20.1V10z"/>
		</g>
		<g>
			<path class="st1" d="M223.3,10h4.7v34.6h-4.3l-23.1-26.6v26.6h-4.7V10h4l23.3,26.9V10z"/>
		</g>
		<g>
			<path class="st1" d="M232.4,9.9h28.9v4.4h-12.1v30.2h-5V14.4h-11.9V9.9z"/>
		</g>
	</g>
	<g>
		<g>
			<path class="st0" d="M292.3,23.8h2.8v20.8h-3V28.4l-6.4,8h-0.5l-6.5-8v16.2h-3V23.8h2.8l6.9,8.5L292.3,23.8z"/>
		</g>
		<g>
			<path class="st0" d="M306.2,23.7h2.1l9.3,20.9h-3l-2.8-6.2h-8.9l-2.6,6.2h-3.1L306.2,23.7z M310.6,35.8l-3.3-7.5l-3.1,7.5H310.6z
				"/>
		</g>
		<g>
			<path class="st0" d="M336.3,23.8h2.8v20.8h-2.6l-13.9-16v16h-2.8V23.8h2.4l14,16.1V23.8z"/>
		</g>
		<g>
			<path class="st0" d="M350.2,23.7h2.1l9.3,20.9h-3l-2.8-6.2H347l-2.6,6.2h-3.1L350.2,23.7z M354.6,35.8l-3.3-7.5l-3.1,7.5H354.6z"
				/>
		</g>
		<g>
			<path class="st0" d="M373.9,34.4h7v8.8c-2.6,1.1-5.1,1.7-7.6,1.7c-3.4,0-6.2-1-8.2-3c-2.1-2-3.1-4.5-3.1-7.4
				c0-3.1,1.1-5.7,3.2-7.7c2.1-2.1,4.8-3.1,8-3.1c1.2,0,2.3,0.1,3.3,0.4c1,0.3,2.4,0.7,4,1.4v3c-2.5-1.4-4.9-2.2-7.4-2.2
				c-2.3,0-4.2,0.8-5.7,2.3c-1.6,1.5-2.3,3.4-2.3,5.7c0,2.4,0.8,4.3,2.3,5.8c1.6,1.5,3.6,2.2,6,2.2c1.2,0,2.6-0.3,4.3-0.8l0.3-0.1
				V37h-4V34.4z"/>
		</g>
		<g>
			<path class="st0" d="M385.2,23.8H397v2.6h-8.8v6.3h8.5v2.7h-8.5v6.4h9.1v2.6h-12.1V23.8z"/>
		</g>
		<g>
			<path class="st0" d="M416.9,23.8h2.8v20.8h-3V28.4l-6.4,8h-0.6l-6.5-8v16.2h-3V23.8h2.8l6.9,8.5L416.9,23.8z"/>
		</g>
		<g>
			<path class="st0" d="M424.2,23.8H436v2.6h-8.8v6.3h8.5v2.7h-8.5v6.4h9.1v2.6h-12.1V23.8z"/>
		</g>
		<g>
			<path class="st0" d="M455.9,23.8h2.8v20.8h-2.6l-13.9-16v16h-2.8V23.8h2.4l14,16.1V23.8z"/>
		</g>
		<g>
			<path class="st0" d="M461.4,23.8h17.3v2.6h-7.2v18.1h-3V26.4h-7.1V23.8z"/>
		</g>
		<g>
			<path class="st0" d="M507.9,39.8V43c-2.2,1.2-4.7,1.8-7.5,1.8c-2.3,0-4.3-0.5-5.9-1.4c-1.6-0.9-2.9-2.2-3.8-3.8
				c-0.9-1.6-1.4-3.4-1.4-5.3c0-3,1.1-5.6,3.2-7.6c2.2-2.1,4.8-3.1,8-3.1c2.2,0,4.6,0.6,7.3,1.7v3.2c-2.4-1.4-4.8-2.1-7.1-2.1
				c-2.4,0-4.4,0.8-5.9,2.2c-1.6,1.5-2.4,3.4-2.4,5.6c0,2.3,0.8,4.2,2.3,5.6c1.5,1.5,3.5,2.2,5.9,2.2
				C503,42.1,505.5,41.3,507.9,39.8z"/>
		</g>
		<g>
			<path class="st0" d="M521.7,23.5c3.2,0,5.9,1,8,3c2.1,2,3.2,4.6,3.2,7.6c0,3.1-1.1,5.6-3.2,7.6c-2.2,2-4.9,3-8.1,3
				c-3.1,0-5.7-1-7.8-3c-2.1-2-3.1-4.5-3.1-7.5c0-3.1,1-5.7,3.1-7.7C515.9,24.5,518.5,23.5,521.7,23.5z M521.8,26.4
				c-2.4,0-4.3,0.7-5.9,2.2c-1.5,1.5-2.3,3.4-2.3,5.7c0,2.2,0.8,4.1,2.3,5.6c1.5,1.5,3.5,2.2,5.8,2.2c2.3,0,4.2-0.8,5.8-2.3
				c1.5-1.5,2.3-3.4,2.3-5.7c0-2.2-0.8-4-2.3-5.6C526,27.1,524.1,26.4,521.8,26.4z"/>
		</g>
		<g>
			<path class="st0" d="M553.1,23.8h2.8v20.8h-3V28.4l-6.4,8H546l-6.5-8v16.2h-3V23.8h2.8l6.9,8.5L553.1,23.8z"/>
		</g>
		<g>
			<path class="st0" d="M560.2,44.6V23.8h6.6c2,0,3.6,0.5,4.7,1.6c1.2,1.1,1.8,2.5,1.8,4.3c0,1.2-0.3,2.3-0.9,3.2
				c-0.6,0.9-1.4,1.6-2.5,2c-1.1,0.4-2.6,0.6-4.5,0.6h-2.2v9H560.2z M566.3,26.4h-3.1v6.5h3.3c1.2,0,2.1-0.3,2.8-0.9
				c0.7-0.6,1-1.4,1-2.4C570.2,27.5,568.9,26.4,566.3,26.4z"/>
		</g>
		<g>
			<path class="st0" d="M580.1,23.7h2.1l9.3,20.9h-3l-2.8-6.2h-8.9l-2.6,6.2h-3.1L580.1,23.7z M584.4,35.8l-3.3-7.5l-3.1,7.5H584.4z
				"/>
		</g>
		<g>
			<path class="st0" d="M610.2,23.8h2.8v20.8h-2.6l-13.9-16v16h-2.8V23.8h2.4l14,16.1V23.8z"/>
		</g>
		<g>
			<path class="st0" d="M630,23.8h3.6l-7.7,9.8v11h-3v-11l-7.7-9.8h3.6l5.6,7.2L630,23.8z"/>
		</g>
	</g>
	<g>
		<path class="st1" d="M51.9,53.5h0.6c0.2,0,0.4,0,0.5,0.1c0.1,0,0.2,0.1,0.2,0.2c0.1,0.1,0.1,0.2,0.1,0.2c0,0.1-0.1,0.3-0.2,0.3
			c-0.1,0.1-0.3,0.1-0.6,0.1h-0.6V53.5z M51.9,56.2v-1.3h0.3c0.2,0,0.3,0,0.4,0.1c0.1,0.1,0.3,0.3,0.5,0.7l0.3,0.5h0.6l-0.4-0.6
			c-0.2-0.3-0.3-0.5-0.5-0.6c-0.1-0.1-0.2-0.1-0.3-0.2c0.3,0,0.5-0.1,0.7-0.3c0.2-0.2,0.2-0.4,0.2-0.6c0-0.2,0-0.3-0.1-0.5
			c-0.1-0.1-0.2-0.2-0.4-0.3c-0.2-0.1-0.4-0.1-0.8-0.1h-1.1v3.1H51.9z M53.9,52.5c0.4,0.2,0.7,0.5,0.9,0.9c0.2,0.4,0.3,0.8,0.3,1.2
			c0,0.4-0.1,0.8-0.3,1.2c-0.2,0.4-0.5,0.7-0.9,0.9c-0.4,0.2-0.8,0.3-1.2,0.3c-0.4,0-0.8-0.1-1.2-0.3c-0.4-0.2-0.7-0.5-0.9-0.9
			c-0.2-0.4-0.3-0.8-0.3-1.2c0-0.4,0.1-0.8,0.3-1.2c0.2-0.4,0.5-0.7,0.9-0.9c0.4-0.2,0.8-0.3,1.2-0.3C53.1,52.2,53.5,52.3,53.9,52.5
			 M51.3,52c-0.5,0.3-0.8,0.6-1.1,1.1c-0.3,0.5-0.4,1-0.4,1.5c0,0.5,0.1,1,0.4,1.5c0.3,0.5,0.6,0.8,1.1,1.1c0.5,0.3,1,0.4,1.5,0.4
			c0.5,0,1-0.1,1.5-0.4c0.5-0.3,0.8-0.6,1.1-1.1c0.3-0.5,0.4-1,0.4-1.5c0-0.5-0.1-1-0.4-1.5c-0.3-0.5-0.6-0.8-1.1-1.1
			c-0.5-0.3-1-0.4-1.4-0.4C52.2,51.7,51.7,51.8,51.3,52"/>
	</g>
	<g>
		<path class="st1" d="M265.9,11.5h0.6c0.2,0,0.4,0,0.5,0.1c0.1,0,0.2,0.1,0.2,0.2c0.1,0.1,0.1,0.2,0.1,0.3c0,0.1-0.1,0.3-0.2,0.3
			c-0.1,0.1-0.3,0.1-0.6,0.1h-0.6V11.5z M265.9,14.3v-1.3h0.3c0.2,0,0.3,0,0.4,0.1c0.1,0.1,0.3,0.3,0.5,0.7l0.3,0.5h0.6l-0.4-0.6
			c-0.2-0.3-0.3-0.5-0.5-0.6c-0.1-0.1-0.2-0.1-0.3-0.2c0.3,0,0.5-0.1,0.7-0.3c0.2-0.2,0.2-0.4,0.2-0.6c0-0.2,0-0.3-0.1-0.5
			c-0.1-0.1-0.2-0.2-0.4-0.3c-0.2-0.1-0.4-0.1-0.8-0.1h-1.1v3.2H265.9z M267.9,10.5c0.4,0.2,0.7,0.5,0.9,0.9
			c0.2,0.4,0.3,0.8,0.3,1.2c0,0.4-0.1,0.8-0.3,1.2c-0.2,0.4-0.5,0.7-0.9,0.9c-0.4,0.2-0.8,0.3-1.2,0.3c-0.4,0-0.8-0.1-1.2-0.3
			c-0.4-0.2-0.7-0.5-0.9-0.9c-0.2-0.4-0.3-0.8-0.3-1.2c0-0.4,0.1-0.8,0.3-1.2c0.2-0.4,0.5-0.7,0.9-0.9c0.4-0.2,0.8-0.3,1.2-0.3
			C267.1,10.2,267.5,10.3,267.9,10.5 M265.2,10.1c-0.5,0.3-0.8,0.6-1.1,1.1c-0.3,0.5-0.4,1-0.4,1.5c0,0.5,0.1,1,0.4,1.5
			c0.3,0.5,0.6,0.8,1.1,1.1c0.5,0.3,1,0.4,1.5,0.4c0.5,0,1-0.1,1.5-0.4c0.5-0.3,0.8-0.6,1.1-1.1c0.3-0.5,0.4-1,0.4-1.5
			c0-0.5-0.1-1-0.4-1.5c-0.3-0.5-0.6-0.8-1.1-1.1c-0.5-0.3-1-0.4-1.4-0.4C266.2,9.7,265.7,9.8,265.2,10.1"/>
	</g>
</g>
</svg>
