<svg xmlns="http://www.w3.org/2000/svg" width="633.3" height="57.9" viewBox="0 0 633.3 57.9"><style type="text/css">.st0{fill:#FFFFFF;} .st1{fill:#D1D3D4;} .st2{fill:none;stroke:#D1D3D4;stroke-width:2.7793;}</style><path class="st0" d="M84.1 30.4l-3.8-2.3c-2.4-1.4-4-2.9-5-4.3s-1.5-3-1.5-4.8c0-2.7.9-4.9 2.8-6.6 1.9-1.7 4.3-2.6 7.4-2.6 2.9 0 5.5.8 7.9 2.4v5.8c-2.5-2.4-5.2-3.6-8-3.6-1.6 0-2.9.4-4 1.1-1 .7-1.6 1.7-1.6 2.9 0 1 .4 2 1.1 2.9.8.9 2 1.9 3.7 2.8l3.8 2.2c4.2 2.5 6.3 5.7 6.3 9.6 0 2.8-.9 5-2.8 6.8-1.9 1.7-4.3 2.6-7.2 2.6-3.4 0-6.5-1.1-9.3-3.2v-6.3c2.7 3.4 5.8 5.1 9.3 5.1 1.6 0 2.8-.4 3.9-1.3 1-.9 1.5-1.9 1.5-3.2.1-2.1-1.5-4.1-4.5-6zM109.8 10.2h3.5l15.5 34.8h-5.1l-4.6-10.3h-14.8l-4.3 10.2h-5.1l14.9-34.7zm7.3 20.1l-5.6-12.5-5.2 12.5h10.8zM132.6 10.3h5v30.1h15.6v4.5h-20.5v-34.6zM157.5 10.3h5v34.6h-5v-34.6zM170.1 10.3h19.6v4.4h-14.7v10.5h14.2v4.4h-14.2v10.7h15.1v4.4h-20.1v-34.4zM223 10.3h4.7v34.6h-4.3l-23.1-26.6v26.6h-4.7v-34.6h4l23.4 26.9v-26.9zM232.1 10.3h28.9v4.4h-12v30.2h-5v-30.2h-11.9v-4.4z"/><path class="st1" d="M292 24.2h2.8v20.8h-3v-16.2l-6.4 8h-.5l-6.5-8v16.2h-3v-20.8h2.8l6.9 8.5 6.9-8.5zM305.9 24.1h2.1l9.3 20.9h-3l-2.8-6.2h-8.9l-2.6 6.2h-3l8.9-20.9zm4.4 12l-3.3-7.5-3.1 7.5h6.4zM336.1 24.2h2.8v20.8h-2.6l-13.9-16v16h-2.8v-20.8h2.4l14 16.1v-16.1zM350 24.1h2.1l9.3 20.9h-3l-2.8-6.2h-8.9l-2.6 6.2h-3.1l9-20.9zm4.3 12l-3.3-7.5-3.1 7.5h6.4zM373.6 34.7h7v8.8c-2.6 1.1-5.1 1.7-7.6 1.7-3.4 0-6.2-1-8.2-3-2.1-2-3.1-4.5-3.1-7.4 0-3.1 1.1-5.7 3.2-7.7 2.1-2.1 4.8-3.1 8-3.1 1.2 0 2.3.1 3.3.4 1 .3 2.4.7 4 1.4v3c-2.5-1.4-4.9-2.2-7.4-2.2-2.3 0-4.2.8-5.7 2.3-1.6 1.5-2.3 3.4-2.3 5.7 0 2.4.8 4.3 2.3 5.8 1.6 1.5 3.6 2.2 6 2.2 1.2 0 2.6-.3 4.3-.8l.3-.1v-4.3h-4v-2.7zM384.9 24.2h11.8v2.6h-8.8v6.3h8.5v2.7h-8.5v6.4h9.1v2.6h-12.1v-20.6zM416.7 24.2h2.8v20.8h-3v-16.2l-6.4 8h-.5l-6.5-8v16.2h-3v-20.8h2.8l6.9 8.5 6.9-8.5zM423.9 24.2h11.8v2.6h-8.8v6.3h8.5v2.7h-8.5v6.4h9.1v2.6h-12.1v-20.6zM455.6 24.2h2.8v20.8h-2.6l-13.8-16v16h-2.8v-20.8h2.4l14 16.1v-16.1zM461.1 24.2h17.3v2.6h-7.2v18.1h-3v-18.1h-7.1v-2.6zM507.6 40.1v3.3c-2.2 1.2-4.7 1.8-7.5 1.8-2.3 0-4.3-.5-5.9-1.4-1.6-.9-2.9-2.2-3.8-3.8-.9-1.6-1.4-3.4-1.4-5.3 0-3 1.1-5.6 3.2-7.6 2.2-2.1 4.8-3.1 8-3.1 2.2 0 4.6.6 7.3 1.7v3.2c-2.4-1.4-4.8-2.1-7.1-2.1-2.4 0-4.4.8-5.9 2.3-1.6 1.5-2.4 3.4-2.4 5.6 0 2.3.8 4.2 2.3 5.6 1.5 1.5 3.5 2.2 5.9 2.2 2.5-.1 4.9-.8 7.3-2.4zM521.4 23.9c3.2 0 5.9 1 8 3 2.1 2 3.2 4.6 3.2 7.6 0 3.1-1.1 5.6-3.2 7.6-2.2 2-4.9 3-8.1 3-3.1 0-5.7-1-7.8-3-2.1-2-3.1-4.5-3.1-7.5 0-3.1 1-5.7 3.1-7.7s4.7-3 7.9-3zm.2 2.8c-2.4 0-4.3.7-5.9 2.2-1.5 1.5-2.3 3.4-2.3 5.7 0 2.2.8 4.1 2.3 5.6 1.5 1.5 3.5 2.2 5.8 2.2s4.2-.8 5.8-2.3c1.5-1.5 2.3-3.4 2.3-5.7 0-2.2-.8-4-2.3-5.5-1.6-1.4-3.5-2.2-5.7-2.2zM552.8 24.2h2.8v20.8h-3v-16.2l-6.4 8h-.5l-6.5-8v16.2h-3v-20.8h2.8l6.9 8.5 6.9-8.5zM559.9 44.9v-20.7h6.6c2 0 3.6.5 4.7 1.6 1.2 1.1 1.8 2.5 1.8 4.3 0 1.2-.3 2.3-.9 3.2-.6.9-1.4 1.6-2.5 2-1 .4-2.6.6-4.5.6h-2.2v9h-3zm6.1-18.1h-3.1v6.5h3.3c1.2 0 2.1-.3 2.8-.9.7-.6 1-1.4 1-2.4-.1-2.1-1.4-3.2-4-3.2zM579.8 24.1h2.1l9.3 20.9h-3l-2.8-6.2h-8.9l-2.6 6.2h-3.1l9-20.9zm4.3 12l-3.3-7.5-3.1 7.5h6.4zM609.9 24.2h2.8v20.8h-2.6l-13.9-16v16h-2.8v-20.8h2.4l14 16.1v-16.1zM633.3 24.2l-7.7 9.8v10.9h-3v-10.9l-7.7-9.8h3.6l5.6 7.1 5.6-7.1"/><path class="st0" d="M51.6 53.8h.6c.2 0 .4 0 .5.1.1 0 .2.1.2.2.1.1.1.2.1.2 0 .1-.1.3-.2.3-.1.1-.3.1-.6.1h-.6v-.9zm0 2.8v-1.3h.3c.2 0 .3 0 .4.1.1.1.3.3.5.7l.3.5h.6l-.3-.6c-.2-.3-.3-.5-.5-.6l-.3-.2c.3 0 .5-.1.7-.3.2-.2.2-.4.2-.6 0-.2 0-.3-.1-.5-.1-.1-.2-.2-.4-.3-.2-.1-.4-.1-.8-.1h-1.1v3.1h.5zm2-3.8c.4.2.7.5.9.9.2.4.3.8.3 1.2 0 .4-.1.8-.3 1.2-.2.4-.5.7-.9.9-.4.2-.8.3-1.2.3-.4 0-.8-.1-1.2-.3-.4-.2-.7-.5-.9-.9-.2-.3-.3-.7-.3-1.1 0-.4.1-.8.3-1.2.2-.4.5-.7.9-.9.4-.2.8-.3 1.2-.3.4-.1.8 0 1.2.2m-2.6-.4c-.5.3-.8.6-1.1 1.1-.3.5-.4 1-.4 1.5s.1 1 .4 1.5c.3.5.6.8 1.1 1.1.5.3 1 .4 1.5.4s1-.1 1.5-.4c.5-.3.8-.6 1.1-1.1.3-.5.4-1 .4-1.5s-.1-1-.4-1.5c-.3-.5-.6-.8-1.1-1.1-.5-.3-1-.4-1.4-.4-.7 0-1.2.1-1.6.4M265.6 11.9h.6c.2 0 .4 0 .5.1.1 0 .2.1.2.2.1.1.1.2.1.3 0 .1-.1.3-.2.3-.1.1-.3.1-.6.1h-.6v-1zm0 2.7v-1.3h.3c.2 0 .3 0 .4.1.1.1.3.3.5.7l.3.5h.6l-.4-.6c-.2-.3-.3-.5-.5-.6l-.3-.2c.3 0 .5-.1.7-.3.2-.2.2-.4.2-.6 0-.2 0-.3-.1-.5-.1-.1-.2-.2-.4-.3-.2-.1-.4-.1-.8-.1h-1.1v3.2h.6zm2-3.7c.4.2.7.5.9.9.2.4.3.8.3 1.2 0 .4-.1.8-.3 1.2-.2.4-.5.7-.9.9-.4.2-.8.3-1.2.3-.4 0-.8-.1-1.2-.3-.4-.2-.7-.5-.9-.9-.2-.4-.3-.8-.3-1.2 0-.4.1-.8.3-1.2.2-.4.5-.7.9-.9.4-.2.8-.3 1.2-.3.4 0 .8.1 1.2.3m-2.7-.5c-.5.3-.8.6-1.1 1.1-.3.5-.4 1-.4 1.5s.1 1 .4 1.5c.3.5.6.8 1.1 1.1.5.3 1 .4 1.5.4s1-.1 1.5-.4c.5-.3.8-.6 1.1-1.1.3-.5.4-1 .4-1.5s-.1-1-.4-1.5c-.3-.5-.6-.8-1.1-1.1-.5-.3-1-.4-1.4-.4-.6.1-1.1.2-1.6.4"/><path class="st2" d="M46.3 8.9c5.4 5 8.8 12.1 8.8 20.1 0 15-12 27.1-26.8 27.1M1.4 29c0-15 12-27.1 26.9-27.1M10.3 49.1c-5.5-5-8.9-12.1-8.9-20.1"/><path class="st0" d="M34.9 2.2l-22.7 23.2 10.4.1 22.8-23.4-3.2-2.1zM34.9 31.2l-22.8 23.3h10.5l22.8-23.4-3.2-2.1z"/><path class="st1" d="M22.5 40l22.7-23.2-10.4-.1-22.8 23.4 3.2 2.1z"/></svg>