<svg xmlns="http://www.w3.org/2000/svg" width="362.7" height="247" viewBox="0 0 362.7 247"><style>.st0{fill:none;stroke:#FFFFFF;stroke-miterlimit:10;} .st1{fill:#FFFFFF;}</style><circle class="st0" cx="323.3" cy="51.7" r="27.2"/><path class="st0" d="M362.1 107.9c0-14.4-11.8-26.2-26.2-26.2h-26.2c-14.4 0-26.2 11.8-26.2 26.2v21.5h78.7l-.1-21.5z"/><circle class="st0" cx="40.3" cy="51.7" r="27.2"/><path class="st0" d="M79.1 107.9c0-14.4-11.8-26.2-26.2-26.2H26.7C12.3 81.7.5 93.5.5 107.9v21.5h78.7l-.1-21.5z"/><circle class="st0" cx="258.4" cy="46.7" r="32.2"/><path class="st0" d="M304.4 113c0-17-13.9-31-31-31h-31c-17 0-31 13.9-31 31v25.4h93V113z"/><circle class="st0" cx="105.4" cy="46.7" r="32.2"/><path class="st0" d="M151.4 113c0-17-13.9-31-31-31h-31c-17 0-31 13.9-31 31v25.4h93V113z"/><circle class="st0" cx="181.4" cy="41" r="40.5"/><path class="st0" d="M239.4 124.5c0-21.4-17.5-39-39-39h-39c-21.5 0-39 17.6-39 39v31.9h117v-31.9z"/><path class="st1" d="M148.5 161.4l-11.6 37.7-19-45.1-15.4 39.1H14v-10h81.7l21.9-55.8 17.9 42.5 12.1-39.6 27.6 73.7 13.6-122.3 20.7 111.7 15.4-27.3 12.2 23.3 7.9-39.7 28.9 33.5H343v10h-73.7l-18.4-21.4-9.4 48-16.9-32.4-19.9 35.2-13.4-72.2-10.8 96.7"/><path class="st1" d="M300 178.1v-24h-25v-16h25v-24h15v24h25v16h-25v24"/></svg>